# xmcd
#
# Track frame offsets:
#	150
#	25123
#	54979
#	74739
#	99824
#	123355
#	154067
#	172210
#	194667
#	217505
#	250698
#
# Disc length: 3676 seconds
#
# Revision: 1
# Processed by: cddbd v1.5.2PL0 Copyright (c) Steve Scherf et al.
# Submitted via: EZCDAudioConverter 1.3.4.1
#
DISCID=910e5a0b
DTITLE=Chris Duarte Group - Chris Duarte Live CD 1
DYEAR=2013
DGENRE=Blues
TTITLE0=Hideaway
TTITLE1=Big Legged Woman
TTITLE2=Riding
TTITLE3=Do The Romp
TTITLE4=Make Me Feel So Right
TTITLE5=Bottled Blues
TTITLE6=Let's Have a Party
TTITLE7=Still I Think Of You
TTITLE8=Free For Me
TTITLE9=One More Cup Of Coffee
TTITLE10=101
EXTD=
EXTT0=
EXTT1=
EXTT2=
EXTT3=
EXTT4=
EXTT5=
EXTT6=
EXTT7=
EXTT8=
EXTT9=
EXTT10=
PLAYORDER=
